{
	"asset":{
		"generator":"Khronos glTF Blender I/O v3.6.28",
		"version":"2.0"
	},
	"extensionsUsed":[
		"KHR_materials_specular",
		"KHR_materials_ior"
	],
	"scene":0,
	"scenes":[
		{
			"name":"Scene",
			"nodes":[
				0
			]
		}
	],
	"nodes":[
		{
			"mesh":0,
			"name":"Carlos_Kano",
			"rotation":[
				0.7071068286895752,
				0,
				0,
				0.7071068286895752
			]
		}
	],
	"materials":[
		{
			"doubleSided":true,
			"emissiveFactor":[
				1,
				1,
				1
			],
			"emissiveTexture":{
				"index":0
			},
			"extensions":{
				"KHR_materials_specular":{
					"specularColorFactor":[
						2.371357614441398,
						2.371357614441398,
						2.371357614441398
					]
				},
				"KHR_materials_ior":{
					"ior":1.4500000476837158
				}
			},
			"name":"Material",
			"pbrMetallicRoughness":{
				"baseColorTexture":{
					"index":1
				},
				"metallicFactor":0,
				"roughnessFactor":0.5
			}
		}
	],
	"meshes":[
		{
			"name":"Carlos_Kanomesh",
			"primitives":[
				{
					"attributes":{
						"COLOR_0":0,
						"POSITION":1,
						"NORMAL":2,
						"TEXCOORD_0":3,
						"TEXCOORD_1":4
					},
					"indices":5,
					"material":0
				}
			]
		}
	],
	"textures":[
		{
			"sampler":0,
			"source":0
		},
		{
			"sampler":0,
			"source":0
		}
	],
	"images":[
		{
			"bufferView":6,
			"mimeType":"image/png",
			"name":"UV Teste"
		}
	],
	"accessors":[
		{
			"bufferView":0,
			"componentType":5123,
			"count":4825,
			"normalized":true,
			"type":"VEC4"
		},
		{
			"bufferView":1,
			"componentType":5126,
			"count":4825,
			"max":[
				0.6164190173149109,
				0.19377900660037994,
				0.0001539999939268455
			],
			"min":[
				-0.6905779242515564,
				-0.23127299547195435,
				-1.2326300144195557
			],
			"type":"VEC3"
		},
		{
			"bufferView":2,
			"componentType":5126,
			"count":4825,
			"type":"VEC3"
		},
		{
			"bufferView":3,
			"componentType":5126,
			"count":4825,
			"type":"VEC2"
		},
		{
			"bufferView":4,
			"componentType":5126,
			"count":4825,
			"type":"VEC2"
		},
		{
			"bufferView":5,
			"componentType":5123,
			"count":22125,
			"type":"SCALAR"
		}
	],
	"bufferViews":[
		{
			"buffer":0,
			"byteLength":38600,
			"byteOffset":0,
			"target":34962
		},
		{
			"buffer":0,
			"byteLength":57900,
			"byteOffset":38600,
			"target":34962
		},
		{
			"buffer":0,
			"byteLength":57900,
			"byteOffset":96500,
			"target":34962
		},
		{
			"buffer":0,
			"byteLength":38600,
			"byteOffset":154400,
			"target":34962
		},
		{
			"buffer":0,
			"byteLength":38600,
			"byteOffset":193000,
			"target":34962
		},
		{
			"buffer":0,
			"byteLength":44250,
			"byteOffset":231600,
			"target":34963
		},
		{
			"buffer":0,
			"byteLength":148924,
			"byteOffset":275852
		}
	],
	"samplers":[
		{
			"magFilter":9729,
			"minFilter":9987
		}
	],
	"buffers":[
		{
			"byteLength":424776,
			"uri":"data:application/octet-stream;base64,"
		}
	]
}
