# Blender 3.6.5
# www.blender.org
mtllib rede.mtl
o rede
v 0.842000 0.024175 -0.781157
v -0.842000 0.024175 0.781157
v 0.842000 0.167500 -0.781157
v -0.842000 0.167500 0.781157
v 0.842000 0.149847 -0.781157
v 0.842000 0.041828 -0.781157
v -0.842000 0.041828 0.781157
v -0.842000 0.149847 0.781157
v 0.000000 0.167500 0.000000
v 0.000000 0.024175 0.000000
v 0.000000 0.041828 0.000000
v 0.000000 0.149847 0.000000
v -0.842000 0.095838 0.781157
v 0.842000 0.095838 -0.781157
v 0.000000 0.095838 0.000000
v -0.421000 0.167500 0.390579
v -0.421000 0.149847 0.390579
v -0.421000 0.024175 0.390579
v -0.421000 0.041828 0.390579
v -0.421000 0.095838 0.390579
v 0.421000 0.024175 -0.390579
v 0.421000 0.041828 -0.390579
v 0.421000 0.167500 -0.390579
v 0.421000 0.149847 -0.390579
v 0.421000 0.095838 -0.390579
v -0.210500 0.024175 0.195289
v -0.210500 0.041828 0.195289
v -0.210500 0.167500 0.195289
v -0.210500 0.149847 0.195289
v -0.210500 0.095838 0.195289
v 0.210500 0.167500 -0.195289
v 0.210500 0.149847 -0.195289
v 0.210500 0.095838 -0.195289
v 0.210500 0.024175 -0.195289
v 0.210500 0.041828 -0.195289
v -0.631500 0.167500 0.585868
v -0.631500 0.149847 0.585868
v -0.631500 0.095838 0.585868
v -0.631500 0.024175 0.585868
v -0.631500 0.041828 0.585868
v 0.631500 0.024175 -0.585868
v 0.631500 0.041828 -0.585868
v 0.631500 0.167500 -0.585868
v 0.631500 0.149847 -0.585868
v 0.631500 0.095838 -0.585868
v -0.736750 0.167500 0.683512
v -0.736750 0.149847 0.683512
v -0.736750 0.095838 0.683512
v -0.736750 0.024175 0.683512
v -0.736750 0.041828 0.683512
v -0.526250 0.024175 0.488223
v -0.526250 0.041828 0.488223
v -0.526250 0.167500 0.488223
v -0.526250 0.149847 0.488223
v -0.526250 0.095838 0.488223
v -0.315750 0.167500 0.292934
v -0.315750 0.149847 0.292934
v -0.315750 0.095838 0.292934
v -0.315750 0.024175 0.292934
v -0.315750 0.041828 0.292934
v -0.105250 0.024175 0.097645
v -0.105250 0.041828 0.097645
v -0.105250 0.167500 0.097645
v -0.105250 0.149847 0.097645
v -0.105250 0.095838 0.097645
v 0.105250 0.167500 -0.097645
v 0.105250 0.149847 -0.097645
v 0.105250 0.095838 -0.097645
v 0.105250 0.024175 -0.097645
v 0.105250 0.041828 -0.097645
v 0.315750 0.024175 -0.292934
v 0.315750 0.041828 -0.292934
v 0.315750 0.167500 -0.292934
v 0.315750 0.149847 -0.292934
v 0.315750 0.095838 -0.292934
v 0.526250 0.167500 -0.488223
v 0.526250 0.149847 -0.488223
v 0.526250 0.095838 -0.488223
v 0.526250 0.024175 -0.488223
v 0.526250 0.041828 -0.488223
v 0.736750 0.024175 -0.683512
v 0.736750 0.041828 -0.683512
v 0.736750 0.167500 -0.683512
v 0.736750 0.149847 -0.683512
v 0.736750 0.095838 -0.683512
v 0.789375 0.024175 -0.732335
v 0.789375 0.041828 -0.732335
v 0.789375 0.167500 -0.732335
v 0.789375 0.149847 -0.732335
v 0.789375 0.095838 -0.732335
v 0.684125 0.167500 -0.634690
v 0.684125 0.149847 -0.634690
v 0.684125 0.095838 -0.634690
v 0.684125 0.024175 -0.634690
v 0.684125 0.041828 -0.634690
v 0.578875 0.024175 -0.537045
v 0.578875 0.041828 -0.537045
v 0.578875 0.167500 -0.537045
v 0.578875 0.149847 -0.537045
v 0.578875 0.095838 -0.537045
v 0.473625 0.167500 -0.439401
v 0.473625 0.149847 -0.439401
v 0.473625 0.095838 -0.439401
v 0.473625 0.024175 -0.439401
v 0.473625 0.041828 -0.439401
v 0.368375 0.024175 -0.341756
v 0.368375 0.041828 -0.341756
v 0.368375 0.167500 -0.341756
v 0.368375 0.149847 -0.341756
v 0.368375 0.095838 -0.341756
v 0.263125 0.167500 -0.244112
v 0.263125 0.149847 -0.244112
v 0.263125 0.095838 -0.244112
v 0.263125 0.024175 -0.244112
v 0.263125 0.041828 -0.244112
v 0.157875 0.024175 -0.146467
v 0.157875 0.041828 -0.146467
v 0.157875 0.167500 -0.146467
v 0.157875 0.149847 -0.146467
v 0.157875 0.095838 -0.146467
v 0.052625 0.167500 -0.048822
v 0.052625 0.149847 -0.048822
v 0.052625 0.095838 -0.048822
v 0.052625 0.024175 -0.048822
v 0.052625 0.041828 -0.048822
v -0.052625 0.024175 0.048822
v -0.052625 0.041828 0.048822
v -0.052625 0.167500 0.048822
v -0.052625 0.149847 0.048822
v -0.052625 0.095838 0.048822
v -0.157875 0.167500 0.146467
v -0.157875 0.149847 0.146467
v -0.157875 0.095838 0.146467
v -0.157875 0.024175 0.146467
v -0.157875 0.041828 0.146467
v -0.263125 0.024175 0.244112
v -0.263125 0.041828 0.244112
v -0.263125 0.167500 0.244112
v -0.263125 0.149847 0.244112
v -0.263125 0.095838 0.244112
v -0.368375 0.167500 0.341756
v -0.368375 0.149847 0.341756
v -0.368375 0.095838 0.341756
v -0.368375 0.024175 0.341756
v -0.368375 0.041828 0.341756
v -0.473625 0.024175 0.439401
v -0.473625 0.041828 0.439401
v -0.473625 0.167500 0.439401
v -0.473625 0.149847 0.439401
v -0.473625 0.095838 0.439401
v -0.578875 0.167500 0.537045
v -0.578875 0.149847 0.537045
v -0.578875 0.095838 0.537045
v -0.578875 0.024175 0.537045
v -0.578875 0.041828 0.537045
v -0.684125 0.024175 0.634690
v -0.684125 0.041828 0.634690
v -0.684125 0.167500 0.634690
v -0.684125 0.149847 0.634690
v -0.684125 0.095838 0.634690
v -0.789375 0.167500 0.732335
v -0.789375 0.149847 0.732335
v -0.789375 0.095838 0.732335
v -0.789375 0.024175 0.732335
v -0.789375 0.041828 0.732335
vn 0.6801 -0.0000 0.7331
vt 0.094930 0.961134
vt 0.094930 0.991876
vt 0.087370 0.991876
vt 0.087370 0.961134
vt 0.034088 0.961134
vt 0.034088 0.991877
vt 0.010958 0.991877
vt 0.010958 0.961134
vt 0.131878 0.961134
vt 0.131878 0.991876
vt 0.124318 0.991876
vt 0.124318 0.961134
vt 0.131878 0.469258
vt 0.131878 0.500000
vt 0.124318 0.500000
vt 0.124318 0.469258
vt 0.034088 0.469258
vt 0.034088 0.500000
vt 0.010958 0.500000
vt 0.010958 0.469258
vt 0.094930 0.469258
vt 0.094930 0.500000
vt 0.087369 0.500000
vt 0.087369 0.469258
vt 0.057218 0.469258
vt 0.057218 0.500000
vt 0.057218 0.961134
vt 0.057218 0.991877
vt 0.057218 0.223319
vt 0.057218 0.254062
vt 0.034088 0.254062
vt 0.034088 0.223319
vt 0.010958 0.254062
vt 0.010958 0.223319
vt 0.131878 0.715196
vt 0.131878 0.745938
vt 0.124318 0.745938
vt 0.124318 0.715196
vt 0.094930 0.715196
vt 0.094930 0.745938
vt 0.087369 0.745938
vt 0.087369 0.715196
vt 0.057218 0.715196
vt 0.057218 0.745938
vt 0.034088 0.745938
vt 0.034088 0.715196
vt 0.094929 0.223319
vt 0.094929 0.254062
vt 0.087369 0.254062
vt 0.087369 0.223319
vt 0.131878 0.223319
vt 0.131878 0.254062
vt 0.124318 0.254062
vt 0.124318 0.223319
vt 0.010958 0.745938
vt 0.010958 0.715196
vt 0.094930 0.592227
vt 0.094930 0.622969
vt 0.087369 0.622969
vt 0.087369 0.592227
vt 0.131878 0.592227
vt 0.131878 0.622969
vt 0.124318 0.622969
vt 0.124318 0.592227
vt 0.057218 0.346289
vt 0.057218 0.377031
vt 0.034088 0.377031
vt 0.034088 0.346289
vt 0.010958 0.377031
vt 0.010958 0.346289
vt 0.034088 0.592227
vt 0.034088 0.622969
vt 0.010958 0.622969
vt 0.010958 0.592227
vt 0.057218 0.592227
vt 0.057218 0.622969
vt 0.094930 0.346289
vt 0.094930 0.377031
vt 0.087369 0.377031
vt 0.087369 0.346289
vt 0.131878 0.346289
vt 0.131878 0.377031
vt 0.124318 0.377031
vt 0.124318 0.346289
vt 0.034088 0.100350
vt 0.034088 0.131093
vt 0.010958 0.131093
vt 0.010958 0.100350
vt 0.057218 0.100350
vt 0.057218 0.131093
vt 0.131878 0.838165
vt 0.131878 0.868907
vt 0.124318 0.868907
vt 0.124318 0.838165
vt 0.094930 0.838165
vt 0.094930 0.868907
vt 0.087370 0.868907
vt 0.087370 0.838165
vt 0.131878 0.100350
vt 0.131878 0.131093
vt 0.124318 0.131093
vt 0.124318 0.100350
vt 0.094929 0.100350
vt 0.094929 0.131093
vt 0.087369 0.131093
vt 0.087369 0.100350
vt 0.057218 0.838165
vt 0.057218 0.868907
vt 0.034088 0.868907
vt 0.034088 0.838165
vt 0.010958 0.868907
vt 0.010958 0.838165
vt 0.057218 0.038866
vt 0.057218 0.069608
vt 0.034088 0.069608
vt 0.034088 0.038866
vt 0.010958 0.069608
vt 0.010958 0.038866
vt 0.131878 0.899650
vt 0.131878 0.930392
vt 0.124318 0.930392
vt 0.124318 0.899650
vt 0.094930 0.899650
vt 0.094930 0.930392
vt 0.087370 0.930392
vt 0.087370 0.899650
vt 0.094930 0.776680
vt 0.094930 0.807423
vt 0.087369 0.807423
vt 0.087369 0.776680
vt 0.131878 0.776680
vt 0.131878 0.807423
vt 0.124318 0.807423
vt 0.124318 0.776680
vt 0.034088 0.161835
vt 0.034088 0.192577
vt 0.010958 0.192577
vt 0.010958 0.161835
vt 0.057218 0.161835
vt 0.057218 0.192577
vt 0.034088 0.284804
vt 0.034088 0.315546
vt 0.010958 0.315546
vt 0.010958 0.284804
vt 0.057218 0.284804
vt 0.057218 0.315546
vt 0.094930 0.653711
vt 0.094930 0.684454
vt 0.087369 0.684454
vt 0.087369 0.653711
vt 0.131878 0.653711
vt 0.131878 0.684454
vt 0.124318 0.684454
vt 0.124318 0.653711
vt 0.131878 0.530742
vt 0.131878 0.561484
vt 0.124318 0.561484
vt 0.124318 0.530742
vt 0.094930 0.530742
vt 0.094930 0.561484
vt 0.087369 0.561484
vt 0.087369 0.530742
vt 0.057218 0.407773
vt 0.057218 0.438515
vt 0.034088 0.438515
vt 0.034088 0.407773
vt 0.010958 0.438515
vt 0.010958 0.407773
vt 0.057218 0.530742
vt 0.057218 0.561485
vt 0.034088 0.561485
vt 0.034088 0.530742
vt 0.010958 0.561485
vt 0.010958 0.530742
vt 0.094930 0.407773
vt 0.094930 0.438515
vt 0.087369 0.438515
vt 0.087369 0.407773
vt 0.131878 0.407773
vt 0.131878 0.438515
vt 0.124318 0.438515
vt 0.124318 0.407773
vt 0.131878 0.284804
vt 0.131878 0.315546
vt 0.124318 0.315546
vt 0.124318 0.284804
vt 0.094929 0.284804
vt 0.094930 0.315546
vt 0.087369 0.315546
vt 0.087369 0.284804
vt 0.034088 0.653711
vt 0.034088 0.684454
vt 0.010958 0.684454
vt 0.010958 0.653711
vt 0.057218 0.653711
vt 0.057218 0.684454
vt 0.034088 0.776681
vt 0.034088 0.807423
vt 0.010958 0.807423
vt 0.010958 0.776681
vt 0.057218 0.776681
vt 0.057218 0.807423
vt 0.131878 0.161835
vt 0.131878 0.192577
vt 0.124318 0.192577
vt 0.124318 0.161835
vt 0.094929 0.161835
vt 0.094929 0.192577
vt 0.087369 0.192577
vt 0.087369 0.161835
vt 0.094929 0.038866
vt 0.094929 0.069608
vt 0.087369 0.069608
vt 0.087369 0.038866
vt 0.131878 0.038866
vt 0.131878 0.069608
vt 0.124318 0.069608
vt 0.124318 0.038866
vt 0.057218 0.899650
vt 0.057218 0.930392
vt 0.034088 0.930392
vt 0.034088 0.899650
vt 0.010958 0.930392
vt 0.010958 0.899650
vt 0.131878 0.008123
vt 0.124318 0.008123
vt 0.094929 0.008123
vt 0.087369 0.008123
vt 0.034088 0.008123
vt 0.010958 0.008123
vt 0.057218 0.008123
s 0
usemtl Rede_mtl
f 165/1/1 7/2/1 2/3/1 164/4/1
f 90/5/1 14/6/1 5/7/1 89/8/1
f 161/9/1 4/10/1 8/11/1 162/12/1
f 121/13/1 9/14/1 12/15/1 122/16/1
f 130/17/1 15/18/1 12/19/1 129/20/1
f 125/21/1 11/22/1 10/23/1 124/24/1
f 127/25/1 11/26/1 15/18/1 130/17/1
f 87/27/1 6/28/1 14/6/1 90/5/1
f 147/29/1 19/30/1 20/31/1 150/32/1
f 150/32/1 20/31/1 17/33/1 149/34/1
f 141/35/1 16/36/1 17/37/1 142/38/1
f 145/39/1 19/40/1 18/41/1 144/42/1
f 107/43/1 22/44/1 25/45/1 110/46/1
f 105/47/1 22/48/1 21/49/1 104/50/1
f 101/51/1 23/52/1 24/53/1 102/54/1
f 110/46/1 25/45/1 24/55/1 109/56/1
f 135/57/1 27/58/1 26/59/1 134/60/1
f 131/61/1 28/62/1 29/63/1 132/64/1
f 137/65/1 27/66/1 30/67/1 140/68/1
f 140/68/1 30/67/1 29/69/1 139/70/1
f 120/71/1 33/72/1 32/73/1 119/74/1
f 117/75/1 35/76/1 33/72/1 120/71/1
f 115/77/1 35/78/1 34/79/1 114/80/1
f 111/81/1 31/82/1 32/83/1 112/84/1
f 160/85/1 38/86/1 37/87/1 159/88/1
f 157/89/1 40/90/1 38/86/1 160/85/1
f 151/91/1 36/92/1 37/93/1 152/94/1
f 155/95/1 40/96/1 39/97/1 154/98/1
f 91/99/1 43/100/1 44/101/1 92/102/1
f 95/103/1 42/104/1 41/105/1 94/106/1
f 97/107/1 42/108/1 45/109/1 100/110/1
f 100/110/1 45/109/1 44/111/1 99/112/1
f 165/113/1 50/114/1 48/115/1 163/116/1
f 163/116/1 48/115/1 47/117/1 162/118/1
f 158/119/1 46/120/1 47/121/1 159/122/1
f 157/123/1 50/124/1 49/125/1 156/126/1
f 147/127/1 52/128/1 51/129/1 146/130/1
f 148/131/1 53/132/1 54/133/1 149/134/1
f 153/135/1 55/136/1 54/137/1 152/138/1
f 155/139/1 52/140/1 55/136/1 153/135/1
f 143/141/1 58/142/1 57/143/1 142/144/1
f 145/145/1 60/146/1 58/142/1 143/141/1
f 137/147/1 60/148/1 59/149/1 136/150/1
f 138/151/1 56/152/1 57/153/1 139/154/1
f 128/155/1 63/156/1 64/157/1 129/158/1
f 127/159/1 62/160/1 61/161/1 126/162/1
f 135/163/1 62/164/1 65/165/1 133/166/1
f 133/166/1 65/165/1 64/167/1 132/168/1
f 125/169/1 70/170/1 68/171/1 123/172/1
f 123/172/1 68/171/1 67/173/1 122/174/1
f 117/175/1 70/176/1 69/177/1 116/178/1
f 118/179/1 66/180/1 67/181/1 119/182/1
f 108/183/1 73/184/1 74/185/1 109/186/1
f 107/187/1 72/188/1 71/189/1 106/190/1
f 113/191/1 75/192/1 74/193/1 112/194/1
f 115/195/1 72/196/1 75/192/1 113/191/1
f 103/197/1 78/198/1 77/199/1 102/200/1
f 105/201/1 80/202/1 78/198/1 103/197/1
f 98/203/1 76/204/1 77/205/1 99/206/1
f 97/207/1 80/208/1 79/209/1 96/210/1
f 87/211/1 82/212/1 81/213/1 86/214/1
f 88/215/1 83/216/1 84/217/1 89/218/1
f 95/219/1 82/220/1 85/221/1 93/222/1
f 93/222/1 85/221/1 84/223/1 92/224/1
f 3/225/1 88/215/1 89/218/1 5/226/1
f 6/227/1 87/211/1 86/214/1 1/228/1
f 82/220/1 87/27/1 90/5/1 85/221/1
f 85/221/1 90/5/1 89/8/1 84/223/1
f 45/109/1 93/222/1 92/224/1 44/111/1
f 42/108/1 95/219/1 93/222/1 45/109/1
f 82/212/1 95/103/1 94/106/1 81/213/1
f 83/216/1 91/99/1 92/102/1 84/217/1
f 42/104/1 97/207/1 96/210/1 41/105/1
f 43/100/1 98/203/1 99/206/1 44/101/1
f 78/198/1 100/110/1 99/112/1 77/199/1
f 80/202/1 97/107/1 100/110/1 78/198/1
f 22/44/1 105/201/1 103/197/1 25/45/1
f 25/45/1 103/197/1 102/200/1 24/55/1
f 76/204/1 101/51/1 102/54/1 77/205/1
f 80/208/1 105/47/1 104/50/1 79/209/1
f 22/48/1 107/187/1 106/190/1 21/49/1
f 23/52/1 108/183/1 109/186/1 24/53/1
f 75/192/1 110/46/1 109/56/1 74/193/1
f 72/196/1 107/43/1 110/46/1 75/192/1
f 35/76/1 115/195/1 113/191/1 33/72/1
f 33/72/1 113/191/1 112/194/1 32/73/1
f 73/184/1 111/81/1 112/84/1 74/185/1
f 72/188/1 115/77/1 114/80/1 71/189/1
f 31/82/1 118/179/1 119/182/1 32/83/1
f 35/78/1 117/175/1 116/178/1 34/79/1
f 70/170/1 117/75/1 120/71/1 68/171/1
f 68/171/1 120/71/1 119/74/1 67/173/1
f 15/18/1 123/172/1 122/174/1 12/19/1
f 11/26/1 125/169/1 123/172/1 15/18/1
f 70/176/1 125/21/1 124/24/1 69/177/1
f 66/180/1 121/13/1 122/16/1 67/181/1
f 11/22/1 127/159/1 126/162/1 10/23/1
f 9/14/1 128/155/1 129/158/1 12/15/1
f 62/164/1 127/25/1 130/17/1 65/165/1
f 65/165/1 130/17/1 129/20/1 64/167/1
f 30/67/1 133/166/1 132/168/1 29/69/1
f 27/66/1 135/163/1 133/166/1 30/67/1
f 63/156/1 131/61/1 132/64/1 64/157/1
f 62/160/1 135/57/1 134/60/1 61/161/1
f 28/62/1 138/151/1 139/154/1 29/63/1
f 27/58/1 137/147/1 136/150/1 26/59/1
f 58/142/1 140/68/1 139/70/1 57/143/1
f 60/146/1 137/65/1 140/68/1 58/142/1
f 19/30/1 145/145/1 143/141/1 20/31/1
f 20/31/1 143/141/1 142/144/1 17/33/1
f 60/148/1 145/39/1 144/42/1 59/149/1
f 56/152/1 141/35/1 142/38/1 57/153/1
f 16/36/1 148/131/1 149/134/1 17/37/1
f 19/40/1 147/127/1 146/130/1 18/41/1
f 55/136/1 150/32/1 149/34/1 54/137/1
f 52/140/1 147/29/1 150/32/1 55/136/1
f 40/90/1 155/139/1 153/135/1 38/86/1
f 38/86/1 153/135/1 152/138/1 37/87/1
f 52/128/1 155/95/1 154/98/1 51/129/1
f 53/132/1 151/91/1 152/94/1 54/133/1
f 40/96/1 157/123/1 156/126/1 39/97/1
f 36/92/1 158/119/1 159/122/1 37/93/1
f 50/114/1 157/89/1 160/85/1 48/115/1
f 48/115/1 160/85/1 159/88/1 47/117/1
f 13/229/1 163/116/1 162/118/1 8/230/1
f 7/231/1 165/113/1 163/116/1 13/229/1
f 46/120/1 161/9/1 162/12/1 47/121/1
f 50/124/1 165/1/1 164/4/1 49/125/1
